# xmcd
# 
# Track frame offsets:
#     150
#     18205
#     36422
#     57797
#     73615
#     90165
#     115862
#     131720
#     153047
#     176495
#     199045
#     222210
# 
# Disc length: 3242
# 
# Revision: 10
# Processed by: cddbd v1.5.2PL0 Copyright (c) Steve Scherf et al.
# Submitted via: fre:ac v1.0.31
# 
DISCID=970ca80c
DTITLE=Various Artist - Dangerous Minds
DYEAR=1995
DGENRE=Soundtrack
TTITLE0=Coolio - Gangsta's Paradise (feat. L.V.)
TTITLE1=Aaron Hall - Curiosity
TTITLE2=Big Mike - Havin Thangs
TTITLE3=Rappin' 4-Tay - Problems
TTITLE4=Mr Dalvin - True O.G. (feat. Static)
TTITLE5=Tre Black - Put Ya Back Into It
TTITLE6=24-K - Don't Go There
TTITLE7=Immature - Feel the Funk
TTITLE8=Sista (Missy Elliott) - It's Alright (feat. Craig Mack)
TTITLE9=Rappin' 4-Tay - A Message for Your Mind
TTITLE10=DeVante Swing - Gin and Juice (feat. Static)
TTITLE11=Wendy and Lisa - This Is The Life
EXTD=YEAR: 1995 ID3G: 37
EXTT0=
EXTT1=
EXTT2=
EXTT3=
EXTT4=
EXTT5=
EXTT6=
EXTT7=
EXTT8=
EXTT9=
EXTT10=
EXTT11=
PLAYORDER=
